<svg data-v-423bf9ae="" xmlns="http://www.w3.org/2000/svg" viewBox="0 0 183 91" class="iconLeft"><!----><!----><!----><g data-v-423bf9ae="" id="bee4c4ad-42e1-499a-9381-3a7d7553ec9b" fill="black" transform="matrix(5.357142948374458,0,0,5.357142948374458,108.3100935581083,9.374998490725247)"><path d="M0.70 12.02L0.70 12.02L0.70 1.27L0.70 1.27Q0.70 1.05 0.92 1.05L0.92 1.05L4.29 1.05L4.29 1.05Q5.28 1.05 5.80 1.57L5.80 1.57L5.80 1.57Q6.32 2.08 6.32 3.07L6.32 3.07L6.32 5.64L6.32 5.64Q6.32 6.02 6.07 6.30L6.07 6.30L6.07 6.30Q5.82 6.58 5.43 6.64L5.43 6.64L5.43 6.67L5.43 6.67Q5.82 6.73 6.07 7L6.07 7L6.07 7Q6.32 7.27 6.32 7.66L6.32 7.66L6.32 10.23L6.32 10.23Q6.32 11.22 5.80 11.74L5.80 11.74L5.80 11.74Q5.28 12.25 4.29 12.25L4.29 12.25L0.92 12.25L0.92 12.25Q0.82 12.25 0.76 12.19L0.76 12.19L0.76 12.19Q0.70 12.13 0.70 12.02ZM2.62 7.57L2.62 10.40L3.89 10.40L3.89 10.40Q4.45 10.40 4.45 9.84L4.45 9.84L4.45 8.13L4.45 8.13Q4.45 7.57 3.89 7.57L3.89 7.57L2.62 7.57ZM2.62 2.90L2.62 5.73L3.89 5.73L3.89 5.73Q4.16 5.73 4.31 5.58L4.31 5.58L4.31 5.58Q4.45 5.44 4.45 5.18L4.45 5.18L4.45 3.46L4.45 3.46Q4.45 2.90 3.89 2.90L3.89 2.90L2.62 2.90ZM9.52 12.00L7.16 1.36L7.16 1.36Q7.16 1.31 7.16 1.26L7.16 1.26L7.16 1.26Q7.16 1.05 7.42 1.05L7.42 1.05L8.75 1.05L8.75 1.05Q9.00 1.05 9.06 1.30L9.06 1.30L10.53 8.80L12.01 1.30L12.01 1.30Q12.07 1.05 12.32 1.05L12.32 1.05L13.65 1.05L13.65 1.05Q13.91 1.05 13.91 1.26L13.91 1.26L13.91 1.26Q13.91 1.31 13.90 1.36L13.90 1.36L11.53 12.00L11.53 12.00Q11.47 12.25 11.22 12.25L11.22 12.25L9.83 12.25L9.83 12.25Q9.58 12.25 9.52 12.00L9.52 12.00Z"></path></g><!----><g data-v-423bf9ae="" id="4b27d21f-125e-4bac-aa78-7736f7825c57" transform="matrix(1.1507435094551546,0,0,1.1507435094551546,-12.80270704515285,-10.369203323983136)" stroke="none" fill="black"><path d="M69.194 53.05l11.268 16.976 11.298-8.049-11.649-16.783zM38.994 41.507l15.586-7.025-9.06-18.232-16.706 7.625c-16.309 9.416-21.896 30.27-12.481 46.578s30.103 21.608 46.412 12.193l14.957-10.655L66.443 55.03l-13.877 9.986c-6.524 3.766-14.749 1.733-18.515-4.791s-1.581-14.952 4.943-18.718zM61.222 9.083l-12.619 5.76L57.67 33.09l12.262-5.527z"></path></g><!----></svg>