<svg data-v-fde0c5aa="" xmlns="http://www.w3.org/2000/svg" viewBox="0 0 300 300" class="icon"><!----><defs data-v-fde0c5aa=""><!----></defs><rect data-v-fde0c5aa="" fill="#E2DFF2" x="0" y="0" width="300px" height="300px" class="logo-background-square"></rect><!----><defs data-v-fde0c5aa=""><linearGradient data-v-fde0c5aa="" gradientTransform="rotate(25)" id="81a6307e-85c1-44ca-bdc4-c233428d34c0" x1="0%" y1="0%" x2="100%" y2="0%"><stop data-v-fde0c5aa="" offset="0%" stop-color="#4E1A70" stop-opacity="1"></stop><stop data-v-fde0c5aa="" offset="100%" stop-color="#2B4CF2" stop-opacity="1"></stop></linearGradient></defs><g data-v-fde0c5aa="" id="565190de-08f6-485f-a2aa-f0ad34b12124" fill="url(#81a6307e-85c1-44ca-bdc4-c233428d34c0)" stroke="none" transform="matrix(2.7499819041489233,0,0,2.7499819041489233,7.661670336222343,17.48345314423877)"><path d="M69.194 53.05l11.268 16.976 11.298-8.049-11.649-16.783zM38.994 41.507l15.586-7.025-9.06-18.232-16.706 7.625c-16.309 9.416-21.896 30.27-12.481 46.578s30.103 21.608 46.412 12.193l14.957-10.655L66.443 55.03l-13.877 9.986c-6.524 3.766-14.749 1.733-18.515-4.791s-1.581-14.952 4.943-18.718zM61.222 9.083l-12.619 5.76L57.67 33.09l12.262-5.527z"></path></g><!----></svg>